<svg xmlns="http://www.w3.org/2000/svg" xmlns:xlink="http://www.w3.org/1999/xlink" width="500" zoomAndPan="magnify" viewBox="0 0 375 374.999991" height="500" preserveAspectRatio="xMidYMid meet" version="1.0"><defs><g/><clipPath id="d74d8926e5"><path d="M 146 12 L 173.449219 12 L 173.449219 39 L 146 39 Z M 146 12 " clip-rule="nonzero"/></clipPath><clipPath id="64c1c605bc"><rect x="0" width="299" y="0" height="123"/></clipPath></defs><g transform="matrix(1, 0, 0, 1, 40, 126)"><g clip-path="url(#64c1c605bc)"><path fill="#000000" d="M 141.976562 45.054688 L 148.660156 45.054688 C 148.292969 46.644531 146.589844 50.304688 145.316406 50.300781 C 144.050781 50.296875 142.324219 46.640625 141.976562 45.054688 Z M 148.617188 50.957031 C 148.855469 50.558594 149.285156 50.175781 149.601562 49.695312 C 150.480469 48.375 151.3125 46.625 151.742188 45.054688 L 157.535156 45.074219 C 157.28125 45.550781 156.207031 46.722656 155.835938 47.0625 C 154.007812 48.753906 151.246094 50.5625 148.617188 50.957031 Z M 142.019531 50.949219 C 140.175781 50.71875 138.117188 49.546875 136.847656 48.714844 C 135.777344 48.011719 133.601562 46.101562 133.09375 45.054688 L 138.894531 45.070312 C 139.199219 46.25 139.695312 47.261719 140.1875 48.277344 C 140.929688 49.804688 141.445312 50.078125 142.019531 50.949219 Z M 130.035156 37.179688 C 131.308594 37.183594 136.796875 37.015625 137.589844 37.238281 C 137.6875 38.890625 137.851562 40.300781 138.101562 41.910156 L 131.222656 41.910156 C 130.671875 39.972656 130.285156 39.777344 130.035156 37.179688 Z M 141.175781 41.882812 C 140.945312 40.277344 140.761719 38.847656 140.6875 37.1875 L 149.941406 37.226562 C 149.859375 38.878906 149.683594 40.285156 149.453125 41.921875 Z M 130.03125 34.054688 C 130.269531 31.523438 130.65625 31.28125 131.21875 29.328125 C 132.800781 29.316406 136.703125 29.269531 138.09375 29.359375 C 137.847656 30.945312 137.667969 32.394531 137.582031 34.054688 Z M 133.089844 26.171875 C 133.339844 25.679688 134.414062 24.523438 134.792969 24.179688 C 136.652344 22.484375 139.308594 20.675781 142.019531 20.289062 C 141.371094 21.253906 140.945312 21.417969 140.1875 22.957031 C 139.683594 23.980469 139.203125 24.984375 138.894531 26.1875 Z M 141.96875 26.199219 C 142.507812 23.90625 143.828125 22.425781 143.945312 21.675781 C 144.097656 20.691406 144.253906 19.953125 144.558594 19.042969 C 144.828125 18.238281 145.273438 17.449219 145.492188 16.78125 C 141.625 16.539062 137.429688 18.25 134.902344 19.972656 C 125.1875 26.609375 124.117188 40.265625 131.582031 48.34375 C 136.632812 53.8125 144.375 56.101562 151.8125 53.308594 C 158.457031 50.816406 162.734375 45.132812 163.808594 37.820312 C 163.449219 37.835938 162.636719 38.164062 162.203125 38.277344 C 161.589844 38.4375 161.058594 38.503906 160.417969 38.636719 C 160.214844 39.140625 160.128906 39.789062 159.960938 40.332031 C 159.792969 40.867188 159.542969 41.398438 159.402344 41.921875 L 152.5625 41.890625 L 153 37.65625 C 151.597656 37.257812 149.929688 35.996094 148.851562 35.101562 C 148.390625 34.722656 148.148438 34.441406 147.742188 34.066406 L 140.644531 34.019531 L 141.179688 29.332031 L 144.785156 29.285156 C 144.449219 28.335938 144.152344 27.285156 143.972656 26.199219 Z M 141.96875 26.199219 " fill-opacity="1" fill-rule="evenodd"/><g clip-path="url(#d74d8926e5)"><path fill="#000000" d="M 157.804688 16.789062 C 161.863281 16.335938 165.085938 19.464844 165.457031 23.0625 C 165.886719 27.21875 162.851562 30.476562 159.265625 30.863281 C 155.171875 31.296875 151.945312 28.21875 151.566406 24.578125 C 151.132812 20.410156 154.167969 17.195312 157.804688 16.789062 Z M 168.453125 29.992188 C 169.832031 27.320312 170.652344 24.746094 169.863281 21.183594 C 169.207031 18.21875 167.402344 15.847656 165.722656 14.5625 C 160.703125 10.71875 154.257812 11.480469 150.273438 15.476562 C 146.328125 19.433594 145.597656 26.230469 149.410156 31.183594 C 152.515625 35.222656 158.773438 37.242188 164.597656 33.890625 C 165.710938 35.046875 166.847656 36.167969 168 37.324219 C 168.5 37.820312 169.019531 38.515625 170.015625 38.710938 C 171.050781 38.910156 171.96875 38.46875 172.472656 37.960938 C 172.996094 37.425781 173.449219 36.480469 173.199219 35.398438 C 172.976562 34.433594 172.292969 33.878906 171.796875 33.378906 C 170.664062 32.238281 169.589844 31.09375 168.453125 29.992188 Z M 168.453125 29.992188 " fill-opacity="1" fill-rule="evenodd"/></g><g fill="#000000" fill-opacity="1"><g transform="translate(0.174338, 49.462974)"><g><path d="M 11.03125 -26.765625 L 11.03125 -20.03125 L 21.875 -20.03125 L 21.875 -13.78125 L 11.03125 -13.78125 L 11.03125 -6.484375 L 23.296875 -6.484375 L 23.296875 0 L 2.9375 0 L 2.9375 -33.25 L 23.296875 -33.25 L 23.296875 -26.765625 Z M 11.03125 -26.765625 "/></g></g></g><g fill="#000000" fill-opacity="1"><g transform="translate(25.795466, 49.462974)"><g><path d="M 23.296875 0 L 16.53125 -10.1875 L 10.5625 0 L 1.375 0 L 12.03125 -16.90625 L 1.140625 -33.25 L 10.5625 -33.25 L 17.234375 -23.203125 L 23.109375 -33.25 L 32.296875 -33.25 L 21.734375 -16.484375 L 32.71875 0 Z M 23.296875 0 "/></g></g></g><g fill="#000000" fill-opacity="1"><g transform="translate(59.657035, 49.462974)"><g><path d="M 28.28125 -22.546875 C 28.28125 -20.617188 27.835938 -18.859375 26.953125 -17.265625 C 26.066406 -15.671875 24.707031 -14.382812 22.875 -13.40625 C 21.039062 -12.425781 18.769531 -11.9375 16.0625 -11.9375 L 11.03125 -11.9375 L 11.03125 0 L 2.9375 0 L 2.9375 -33.25 L 16.0625 -33.25 C 18.707031 -33.25 20.945312 -32.789062 22.78125 -31.875 C 24.613281 -30.957031 25.988281 -29.691406 26.90625 -28.078125 C 27.820312 -26.472656 28.28125 -24.628906 28.28125 -22.546875 Z M 15.4375 -18.375 C 16.988281 -18.375 18.140625 -18.734375 18.890625 -19.453125 C 19.648438 -20.179688 20.03125 -21.210938 20.03125 -22.546875 C 20.03125 -23.867188 19.648438 -24.890625 18.890625 -25.609375 C 18.140625 -26.335938 16.988281 -26.703125 15.4375 -26.703125 L 11.03125 -26.703125 L 11.03125 -18.375 Z M 15.4375 -18.375 "/></g></g></g><g fill="#000000" fill-opacity="1"><g transform="translate(89.208948, 49.462974)"><g><path d="M 11.03125 -6.25 L 21.640625 -6.25 L 21.640625 0 L 2.9375 0 L 2.9375 -33.25 L 11.03125 -33.25 Z M 11.03125 -6.25 "/></g></g></g><g fill="#000000" fill-opacity="1"><g transform="translate(186.217817, 49.462974)"><g><path d="M 19.890625 0 L 12.96875 -12.546875 L 11.03125 -12.546875 L 11.03125 0 L 2.9375 0 L 2.9375 -33.25 L 16.53125 -33.25 C 19.144531 -33.25 21.375 -32.789062 23.21875 -31.875 C 25.070312 -30.957031 26.457031 -29.703125 27.375 -28.109375 C 28.289062 -26.515625 28.75 -24.738281 28.75 -22.78125 C 28.75 -20.570312 28.125 -18.597656 26.875 -16.859375 C 25.625 -15.117188 23.785156 -13.890625 21.359375 -13.171875 L 29.03125 0 Z M 11.03125 -18.28125 L 16.0625 -18.28125 C 17.539062 -18.28125 18.648438 -18.640625 19.390625 -19.359375 C 20.128906 -20.085938 20.5 -21.117188 20.5 -22.453125 C 20.5 -23.710938 20.128906 -24.703125 19.390625 -25.421875 C 18.648438 -26.148438 17.539062 -26.515625 16.0625 -26.515625 L 11.03125 -26.515625 Z M 11.03125 -18.28125 "/></g></g></g><g fill="#000000" fill-opacity="1"><g transform="translate(217.095783, 49.462974)"><g><path d="M 11.03125 -26.765625 L 11.03125 -20.03125 L 21.875 -20.03125 L 21.875 -13.78125 L 11.03125 -13.78125 L 11.03125 -6.484375 L 23.296875 -6.484375 L 23.296875 0 L 2.9375 0 L 2.9375 -33.25 L 23.296875 -33.25 L 23.296875 -26.765625 Z M 11.03125 -26.765625 "/></g></g></g><g fill="#e42313" fill-opacity="1"><g transform="translate(0.174338, 106.096144)"><g><path d="M 32.671875 0 L 24.578125 0 L 11.03125 -20.5 L 11.03125 0 L 2.9375 0 L 2.9375 -33.25 L 11.03125 -33.25 L 24.578125 -12.640625 L 24.578125 -33.25 L 32.671875 -33.25 Z M 32.671875 0 "/></g></g></g><g fill="#e42313" fill-opacity="1"><g transform="translate(35.788182, 106.096144)"><g><path d="M 10.890625 -33.25 L 10.890625 -13.359375 C 10.890625 -11.367188 11.378906 -9.835938 12.359375 -8.765625 C 13.335938 -7.691406 14.773438 -7.15625 16.671875 -7.15625 C 18.566406 -7.15625 20.019531 -7.691406 21.03125 -8.765625 C 22.039062 -9.835938 22.546875 -11.367188 22.546875 -13.359375 L 22.546875 -33.25 L 30.640625 -33.25 L 30.640625 -13.40625 C 30.640625 -10.4375 30.007812 -7.925781 28.75 -5.875 C 27.488281 -3.820312 25.789062 -2.273438 23.65625 -1.234375 C 21.519531 -0.191406 19.144531 0.328125 16.53125 0.328125 C 13.90625 0.328125 11.554688 -0.179688 9.484375 -1.203125 C 7.421875 -2.234375 5.789062 -3.78125 4.59375 -5.84375 C 3.394531 -7.914062 2.796875 -10.4375 2.796875 -13.40625 L 2.796875 -33.25 Z M 10.890625 -33.25 "/></g></g></g><g fill="#e42313" fill-opacity="1"><g transform="translate(69.176169, 106.096144)"><g><path d="M 14.96875 0.328125 C 12.53125 0.328125 10.347656 -0.0625 8.421875 -0.84375 C 6.503906 -1.632812 4.96875 -2.800781 3.8125 -4.34375 C 2.65625 -5.894531 2.046875 -7.765625 1.984375 -9.953125 L 10.609375 -9.953125 C 10.734375 -8.710938 11.15625 -7.769531 11.875 -7.125 C 12.601562 -6.476562 13.554688 -6.15625 14.734375 -6.15625 C 15.929688 -6.15625 16.875 -6.429688 17.5625 -6.984375 C 18.257812 -7.535156 18.609375 -8.300781 18.609375 -9.28125 C 18.609375 -10.101562 18.332031 -10.78125 17.78125 -11.3125 C 17.226562 -11.851562 16.550781 -12.296875 15.75 -12.640625 C 14.945312 -12.992188 13.800781 -13.390625 12.3125 -13.828125 C 10.164062 -14.492188 8.410156 -15.15625 7.046875 -15.8125 C 5.691406 -16.476562 4.523438 -17.457031 3.546875 -18.75 C 2.566406 -20.050781 2.078125 -21.742188 2.078125 -23.828125 C 2.078125 -26.921875 3.195312 -29.34375 5.4375 -31.09375 C 7.6875 -32.84375 10.609375 -33.71875 14.203125 -33.71875 C 17.867188 -33.71875 20.820312 -32.84375 23.0625 -31.09375 C 25.300781 -29.34375 26.5 -26.90625 26.65625 -23.78125 L 17.90625 -23.78125 C 17.84375 -24.851562 17.445312 -25.695312 16.71875 -26.3125 C 15.988281 -26.925781 15.054688 -27.234375 13.921875 -27.234375 C 12.941406 -27.234375 12.148438 -26.972656 11.546875 -26.453125 C 10.953125 -25.929688 10.65625 -25.179688 10.65625 -24.203125 C 10.65625 -23.128906 11.160156 -22.289062 12.171875 -21.6875 C 13.179688 -21.09375 14.757812 -20.445312 16.90625 -19.75 C 19.050781 -19.019531 20.796875 -18.320312 22.140625 -17.65625 C 23.484375 -17 24.644531 -16.035156 25.625 -14.765625 C 26.601562 -13.503906 27.09375 -11.878906 27.09375 -9.890625 C 27.09375 -8.003906 26.609375 -6.285156 25.640625 -4.734375 C 24.679688 -3.191406 23.285156 -1.960938 21.453125 -1.046875 C 19.617188 -0.128906 17.457031 0.328125 14.96875 0.328125 Z M 14.96875 0.328125 "/></g></g></g><g fill="#e42313" fill-opacity="1"><g transform="translate(98.301861, 106.096144)"><g><path d="M 23.625 -5.875 L 11.21875 -5.875 L 9.234375 0 L 0.75 0 L 12.78125 -33.25 L 22.171875 -33.25 L 34.1875 0 L 25.625 0 Z M 21.546875 -12.125 L 17.421875 -24.296875 L 13.359375 -12.125 Z M 21.546875 -12.125 "/></g></g></g><g fill="#e42313" fill-opacity="1"><g transform="translate(133.205323, 106.096144)"><g><path d="M 32.671875 0 L 24.578125 0 L 11.03125 -20.5 L 11.03125 0 L 2.9375 0 L 2.9375 -33.25 L 11.03125 -33.25 L 24.578125 -12.640625 L 24.578125 -33.25 L 32.671875 -33.25 Z M 32.671875 0 "/></g></g></g><g fill="#e42313" fill-opacity="1"><g transform="translate(168.819167, 106.096144)"><g><path d="M 26.859375 -33.25 L 26.859375 -26.765625 L 18.046875 -26.765625 L 18.046875 0 L 9.953125 0 L 9.953125 -26.765625 L 1.140625 -26.765625 L 1.140625 -33.25 Z M 26.859375 -33.25 "/></g></g></g><g fill="#e42313" fill-opacity="1"><g transform="translate(196.808241, 106.096144)"><g><path d="M 23.625 -5.875 L 11.21875 -5.875 L 9.234375 0 L 0.75 0 L 12.78125 -33.25 L 22.171875 -33.25 L 34.1875 0 L 25.625 0 Z M 21.546875 -12.125 L 17.421875 -24.296875 L 13.359375 -12.125 Z M 21.546875 -12.125 "/></g></g></g><g fill="#e42313" fill-opacity="1"><g transform="translate(231.711703, 106.096144)"><g><path d="M 19.890625 0 L 12.96875 -12.546875 L 11.03125 -12.546875 L 11.03125 0 L 2.9375 0 L 2.9375 -33.25 L 16.53125 -33.25 C 19.144531 -33.25 21.375 -32.789062 23.21875 -31.875 C 25.070312 -30.957031 26.457031 -29.703125 27.375 -28.109375 C 28.289062 -26.515625 28.75 -24.738281 28.75 -22.78125 C 28.75 -20.570312 28.125 -18.597656 26.875 -16.859375 C 25.625 -15.117188 23.785156 -13.890625 21.359375 -13.171875 L 29.03125 0 Z M 11.03125 -18.28125 L 16.0625 -18.28125 C 17.539062 -18.28125 18.648438 -18.640625 19.390625 -19.359375 C 20.128906 -20.085938 20.5 -21.117188 20.5 -22.453125 C 20.5 -23.710938 20.128906 -24.703125 19.390625 -25.421875 C 18.648438 -26.148438 17.539062 -26.515625 16.0625 -26.515625 L 11.03125 -26.515625 Z M 11.03125 -18.28125 "/></g></g></g><g fill="#e42313" fill-opacity="1"><g transform="translate(262.589669, 106.096144)"><g><path d="M 23.625 -5.875 L 11.21875 -5.875 L 9.234375 0 L 0.75 0 L 12.78125 -33.25 L 22.171875 -33.25 L 34.1875 0 L 25.625 0 Z M 21.546875 -12.125 L 17.421875 -24.296875 L 13.359375 -12.125 Z M 21.546875 -12.125 "/></g></g></g></g></g></svg>